<svg width="40" height="40" viewBox="0 0 40 40" fill="none" xmlns="http://www.w3.org/2000/svg">
<path d="M38 21.58C37.6854 24.9844 36.4078 28.2288 34.3165 30.9336C32.2253 33.6383 29.407 35.6916 26.1915 36.8531C22.9759 38.0146 19.496 38.2362 16.159 37.4922C12.8221 36.7481 9.76604 35.0691 7.3485 32.6516C4.93096 30.234 3.25193 27.178 2.50786 23.841C1.7638 20.504 1.98548 17.0242 3.14697 13.8086C4.30845 10.593 6.36171 7.77473 9.06647 5.68351C11.7712 3.59228 15.0156 2.31461 18.42 2C16.4269 4.69653 15.4677 8.0189 15.7171 11.3628C15.9665 14.7068 17.4078 17.8501 19.7789 20.2212C22.1499 22.5923 25.2933 24.0336 28.6372 24.2829C31.9811 24.5323 35.3035 23.5732 38 21.58Z" stroke="#1E1E1E" stroke-width="4" stroke-linecap="round" stroke-linejoin="round"/>
</svg>
