<svg width="46" height="39" viewBox="0 0 46 39" fill="none" xmlns="http://www.w3.org/2000/svg">
<path d="M7.66666 32.5C6.61249 32.5 5.71006 32.1818 4.95937 31.5453C4.20868 30.9089 3.83333 30.1437 3.83333 29.25V9.75C3.83333 8.85625 4.20868 8.09115 4.95937 7.45469C5.71006 6.81823 6.61249 6.5 7.66666 6.5H38.3333C39.3875 6.5 40.2899 6.81823 41.0406 7.45469C41.7913 8.09115 42.1667 8.85625 42.1667 9.75V29.25C42.1667 30.1437 41.7913 30.9089 41.0406 31.5453C40.2899 32.1818 39.3875 32.5 38.3333 32.5H7.66666ZM23 21.125L7.66666 13V29.25H38.3333V13L23 21.125ZM23 17.875L38.3333 9.75H7.66666L23 17.875ZM7.66666 13V9.75V29.25V13Z" fill="#FEF7FF"/>
</svg>
